<?xml version="1.0" standalone="no"?>
<!DOCTYPE svg PUBLIC "-//W3C//DTD SVG 20010904//EN"
 "http://www.w3.org/TR/2001/REC-SVG-20010904/DTD/svg10.dtd">
<svg version="1.0" xmlns="http://www.w3.org/2000/svg"
 width="1415.000000pt" height="325.000000pt" viewBox="0 0 1415.000000 325.000000"
 preserveAspectRatio="xMidYMid meet">

<g transform="translate(0.000000,325.000000) scale(0.100000,-0.100000)"
fill="#000000" stroke="none">
<path d="M4768 2310 c-165 -28 -335 -126 -442 -256 -110 -133 -166 -297 -166
-484 0 -220 68 -395 210 -541 218 -223 541 -279 829 -143 128 60 279 183 265
216 -6 16 -238 178 -254 178 -7 0 -28 -14 -48 -31 -58 -51 -137 -83 -218 -87
-229 -13 -414 166 -414 399 0 177 90 328 238 397 49 23 70 27 147 27 78 -1 97
-4 145 -28 30 -16 73 -46 95 -68 23 -21 48 -39 57 -39 26 0 248 188 248 210 0
21 -72 88 -150 138 -152 99 -362 142 -542 112z"/>
<path d="M6340 2314 c-218 -40 -381 -138 -496 -300 -99 -139 -138 -267 -137
-454 1 -192 47 -327 162 -474 90 -115 249 -216 396 -252 95 -24 285 -24 380 0
238 58 439 241 520 474 35 99 49 202 42 307 -22 326 -227 586 -535 676 -65 20
-273 34 -332 23z m282 -370 c151 -76 239 -262 211 -444 -22 -139 -107 -261
-223 -318 -48 -24 -67 -27 -150 -27 -85 0 -101 3 -155 29 -252 124 -310 473
-114 681 113 120 288 152 431 79z"/>
<path d="M13155 2314 c-11 -2 -45 -9 -75 -15 -131 -27 -272 -109 -373 -220
-187 -205 -244 -507 -148 -779 38 -108 84 -180 167 -265 114 -116 241 -182
400 -210 109 -19 169 -19 279 0 311 55 546 294 602 615 56 317 -102 647 -376
788 -121 63 -198 83 -336 87 -66 2 -129 2 -140 -1z m277 -370 c245 -124 290
-497 83 -693 -82 -77 -129 -96 -245 -96 -85 0 -101 3 -155 29 -204 100 -290
356 -191 571 33 72 115 158 183 191 97 48 228 47 325 -2z"/>
<path d="M7462 2272 c-10 -7 -12 -160 -10 -733 l3 -724 165 0 165 0 3 413 c1
226 6 412 10 412 4 0 124 -181 266 -401 143 -221 266 -407 274 -415 11 -12 45
-14 165 -12 l152 3 3 724 c2 573 0 726 -10 733 -15 9 -289 11 -312 2 -14 -5
-16 -52 -16 -422 0 -355 -2 -414 -14 -402 -7 8 -130 195 -271 415 -142 220
-263 403 -269 407 -15 10 -288 10 -304 0z"/>
<path d="M8910 2265 c-10 -12 33 -149 226 -727 130 -392 242 -716 248 -720 6
-5 87 -7 180 -5 l170 2 243 719 c186 549 240 722 232 733 -9 10 -50 13 -173
13 -88 0 -167 -4 -174 -9 -8 -4 -76 -212 -152 -461 -77 -249 -141 -455 -144
-457 -5 -6 -25 56 -171 542 -60 198 -113 366 -118 373 -15 19 -350 17 -367 -3z"/>
<path d="M10468 2269 c-17 -9 -18 -54 -18 -722 0 -541 3 -716 12 -725 17 -17
329 -17 346 0 9 9 12 183 12 719 0 630 -2 709 -16 723 -13 13 -42 16 -167 16
-85 0 -160 -5 -169 -11z"/>
<path d="M11062 2267 c-9 -10 48 -192 224 -723 130 -390 241 -715 246 -721 13
-16 343 -19 353 -3 3 6 37 101 75 213 397 1174 412 1218 400 1233 -10 11 -45
14 -174 14 -88 0 -166 -4 -173 -8 -6 -4 -62 -171 -123 -372 -93 -306 -135
-442 -166 -539 -2 -8 -6 -12 -9 -9 -4 3 -132 422 -247 803 -17 55 -35 106 -40
113 -15 18 -351 17 -366 -1z"/>
<path d="M970 2015 l0 -184 -127 -99 c-71 -54 -258 -198 -418 -321 -159 -123
-294 -227 -300 -232 -5 -5 255 -9 611 -9 l619 0 101 88 c55 48 304 263 554
477 l453 390 -552 3 -552 2 -58 -45 c-31 -25 -60 -45 -64 -45 -4 0 -7 36 -7
80 l0 80 -130 0 -130 0 0 -185z"/>
<path d="M2345 1989 c-82 -71 -205 -175 -272 -232 -67 -56 -121 -105 -120
-108 1 -4 97 -91 212 -193 l210 -186 620 0 c340 0 615 4 610 8 -6 5 -77 61
-160 124 -82 64 -325 251 -540 417 -214 166 -394 301 -400 300 -5 0 -77 -58
-160 -130z"/>
</g>
</svg>
